<mxfile host="app.diagrams.net" modified="2022-08-23T03:44:18.985Z" agent="5.0 (Windows NT 10.0; Win64; x64) AppleWebKit/537.36 (KHTML, like Gecko) Chrome/104.0.0.0 Safari/537.36" etag="Cu7KghRnbCyzbCi1rwyG" version="20.1.1" type="github">
  <diagram id="qCpsu6lBvLWQTeVwnFAU" name="Page-1">
    <mxGraphModel dx="733" dy="438" grid="1" gridSize="10" guides="1" tooltips="1" connect="1" arrows="1" fold="1" page="1" pageScale="1" pageWidth="827" pageHeight="1169" math="0" shadow="0">
      <root>
        <mxCell id="0" />
        <mxCell id="1" parent="0" />
        <mxCell id="fsIm3HDob8JfFCVEmCF0-1" value="" style="sketch=0;points=[[0,0,0],[0.25,0,0],[0.5,0,0],[0.75,0,0],[1,0,0],[0,1,0],[0.25,1,0],[0.5,1,0],[0.75,1,0],[1,1,0],[0,0.25,0],[0,0.5,0],[0,0.75,0],[1,0.25,0],[1,0.5,0],[1,0.75,0]];outlineConnect=0;fontColor=#232F3E;gradientColor=#F78E04;gradientDirection=north;fillColor=#D05C17;strokeColor=#ffffff;dashed=0;verticalLabelPosition=bottom;verticalAlign=top;align=center;html=1;fontSize=12;fontStyle=0;aspect=fixed;shape=mxgraph.aws4.resourceIcon;resIcon=mxgraph.aws4.fargate;" vertex="1" parent="1">
          <mxGeometry x="110" y="70" width="78" height="78" as="geometry" />
        </mxCell>
        <mxCell id="fsIm3HDob8JfFCVEmCF0-3" value="" style="sketch=0;points=[[0,0,0],[0.25,0,0],[0.5,0,0],[0.75,0,0],[1,0,0],[0,1,0],[0.25,1,0],[0.5,1,0],[0.75,1,0],[1,1,0],[0,0.25,0],[0,0.5,0],[0,0.75,0],[1,0.25,0],[1,0.5,0],[1,0.75,0]];points=[[0,0,0],[0.25,0,0],[0.5,0,0],[0.75,0,0],[1,0,0],[0,1,0],[0.25,1,0],[0.5,1,0],[0.75,1,0],[1,1,0],[0,0.25,0],[0,0.5,0],[0,0.75,0],[1,0.25,0],[1,0.5,0],[1,0.75,0]];outlineConnect=0;fontColor=#232F3E;gradientColor=#F34482;gradientDirection=north;fillColor=#BC1356;strokeColor=#ffffff;dashed=0;verticalLabelPosition=bottom;verticalAlign=top;align=center;html=1;fontSize=12;fontStyle=0;aspect=fixed;shape=mxgraph.aws4.resourceIcon;resIcon=mxgraph.aws4.cloudwatch_2;" vertex="1" parent="1">
          <mxGeometry x="510" y="282" width="78" height="78" as="geometry" />
        </mxCell>
        <mxCell id="fsIm3HDob8JfFCVEmCF0-4" value="AWS Cloud" style="points=[[0,0],[0.25,0],[0.5,0],[0.75,0],[1,0],[1,0.25],[1,0.5],[1,0.75],[1,1],[0.75,1],[0.5,1],[0.25,1],[0,1],[0,0.75],[0,0.5],[0,0.25]];outlineConnect=0;gradientColor=none;html=1;whiteSpace=wrap;fontSize=12;fontStyle=0;container=1;pointerEvents=0;collapsible=0;recursiveResize=0;shape=mxgraph.aws4.group;grIcon=mxgraph.aws4.group_aws_cloud_alt;strokeColor=#232F3E;fillColor=none;verticalAlign=top;align=left;spacingLeft=30;fontColor=#232F3E;dashed=0;" vertex="1" parent="1">
          <mxGeometry x="120" y="590" width="810" height="610" as="geometry" />
        </mxCell>
        <mxCell id="fsIm3HDob8JfFCVEmCF0-6" value="us-east" style="points=[[0,0],[0.25,0],[0.5,0],[0.75,0],[1,0],[1,0.25],[1,0.5],[1,0.75],[1,1],[0.75,1],[0.5,1],[0.25,1],[0,1],[0,0.75],[0,0.5],[0,0.25]];outlineConnect=0;gradientColor=none;html=1;whiteSpace=wrap;fontSize=12;fontStyle=0;container=1;pointerEvents=0;collapsible=0;recursiveResize=0;shape=mxgraph.aws4.group;grIcon=mxgraph.aws4.group_region;strokeColor=#147EBA;fillColor=none;verticalAlign=top;align=left;spacingLeft=30;fontColor=#147EBA;dashed=1;" vertex="1" parent="fsIm3HDob8JfFCVEmCF0-4">
          <mxGeometry x="40" y="40" width="730" height="530" as="geometry" />
        </mxCell>
        <mxCell id="fsIm3HDob8JfFCVEmCF0-25" value="            Code Pipeline" style="fillColor=#EFF0F3;strokeColor=none;dashed=0;verticalAlign=top;fontStyle=0;fontColor=#232F3D;align=left;" vertex="1" parent="fsIm3HDob8JfFCVEmCF0-6">
          <mxGeometry x="40" y="170" width="520" height="140" as="geometry" />
        </mxCell>
        <mxCell id="fsIm3HDob8JfFCVEmCF0-26" value="" style="sketch=0;points=[[0,0,0],[0.25,0,0],[0.5,0,0],[0.75,0,0],[1,0,0],[0,1,0],[0.25,1,0],[0.5,1,0],[0.75,1,0],[1,1,0],[0,0.25,0],[0,0.5,0],[0,0.75,0],[1,0.25,0],[1,0.5,0],[1,0.75,0]];outlineConnect=0;fontColor=#232F3E;gradientColor=#4D72F3;gradientDirection=north;fillColor=#3334B9;strokeColor=#ffffff;dashed=0;verticalLabelPosition=bottom;verticalAlign=top;align=center;html=1;fontSize=12;fontStyle=0;aspect=fixed;shape=mxgraph.aws4.resourceIcon;resIcon=mxgraph.aws4.codepipeline;" vertex="1" parent="fsIm3HDob8JfFCVEmCF0-6">
          <mxGeometry x="40" y="170" width="30" height="30" as="geometry" />
        </mxCell>
        <mxCell id="fsIm3HDob8JfFCVEmCF0-27" value="Source" style="fillColor=#d5e8d4;strokeColor=#82b366;dashed=0;verticalAlign=top;fontStyle=0;" vertex="1" parent="fsIm3HDob8JfFCVEmCF0-6">
          <mxGeometry x="90" y="210" width="80" height="80" as="geometry" />
        </mxCell>
        <mxCell id="fsIm3HDob8JfFCVEmCF0-33" value="Build" style="fillColor=#d5e8d4;strokeColor=#82b366;dashed=0;verticalAlign=top;fontStyle=0;" vertex="1" parent="fsIm3HDob8JfFCVEmCF0-6">
          <mxGeometry x="260" y="210" width="80" height="80" as="geometry" />
        </mxCell>
        <mxCell id="fsIm3HDob8JfFCVEmCF0-34" value="" style="sketch=0;points=[[0,0,0],[0.25,0,0],[0.5,0,0],[0.75,0,0],[1,0,0],[0,1,0],[0.25,1,0],[0.5,1,0],[0.75,1,0],[1,1,0],[0,0.25,0],[0,0.5,0],[0,0.75,0],[1,0.25,0],[1,0.5,0],[1,0.75,0]];outlineConnect=0;fontColor=#232F3E;gradientColor=#4D72F3;gradientDirection=north;fillColor=#3334B9;strokeColor=#ffffff;dashed=0;verticalLabelPosition=bottom;verticalAlign=top;align=center;html=1;fontSize=12;fontStyle=0;aspect=fixed;shape=mxgraph.aws4.resourceIcon;resIcon=mxgraph.aws4.codebuild;" vertex="1" parent="fsIm3HDob8JfFCVEmCF0-6">
          <mxGeometry x="285" y="240.25" width="30" height="30" as="geometry" />
        </mxCell>
        <mxCell id="fsIm3HDob8JfFCVEmCF0-35" value="" style="verticalLabelPosition=bottom;html=1;verticalAlign=top;align=center;strokeColor=none;fillColor=#3333FF;shape=mxgraph.azure.git_repository;" vertex="1" parent="fsIm3HDob8JfFCVEmCF0-6">
          <mxGeometry x="112.5" y="240.25" width="35" height="35" as="geometry" />
        </mxCell>
        <mxCell id="fsIm3HDob8JfFCVEmCF0-36" value="Deploy" style="fillColor=#d5e8d4;strokeColor=#82b366;dashed=0;verticalAlign=top;fontStyle=0;" vertex="1" parent="fsIm3HDob8JfFCVEmCF0-6">
          <mxGeometry x="430" y="210" width="80" height="80" as="geometry" />
        </mxCell>
        <mxCell id="fsIm3HDob8JfFCVEmCF0-37" value="" style="sketch=0;points=[[0,0,0],[0.25,0,0],[0.5,0,0],[0.75,0,0],[1,0,0],[0,1,0],[0.25,1,0],[0.5,1,0],[0.75,1,0],[1,1,0],[0,0.25,0],[0,0.5,0],[0,0.75,0],[1,0.25,0],[1,0.5,0],[1,0.75,0]];outlineConnect=0;fontColor=#232F3E;gradientColor=#4D72F3;gradientDirection=north;fillColor=#3334B9;strokeColor=#ffffff;dashed=0;verticalLabelPosition=bottom;verticalAlign=top;align=center;html=1;fontSize=12;fontStyle=0;aspect=fixed;shape=mxgraph.aws4.resourceIcon;resIcon=mxgraph.aws4.codedeploy;" vertex="1" parent="fsIm3HDob8JfFCVEmCF0-6">
          <mxGeometry x="455" y="242.75" width="30" height="30" as="geometry" />
        </mxCell>
        <mxCell id="fsIm3HDob8JfFCVEmCF0-10" value="" style="sketch=0;points=[[0,0,0],[0.25,0,0],[0.5,0,0],[0.75,0,0],[1,0,0],[0,1,0],[0.25,1,0],[0.5,1,0],[0.75,1,0],[1,1,0],[0,0.25,0],[0,0.5,0],[0,0.75,0],[1,0.25,0],[1,0.5,0],[1,0.75,0]];outlineConnect=0;fontColor=#232F3E;gradientColor=#60A337;gradientDirection=north;fillColor=#277116;strokeColor=#ffffff;dashed=0;verticalLabelPosition=bottom;verticalAlign=top;align=center;html=1;fontSize=12;fontStyle=0;aspect=fixed;shape=mxgraph.aws4.resourceIcon;resIcon=mxgraph.aws4.s3;" vertex="1" parent="fsIm3HDob8JfFCVEmCF0-6">
          <mxGeometry x="329" y="20" width="50" height="50" as="geometry" />
        </mxCell>
        <mxCell id="fsIm3HDob8JfFCVEmCF0-40" value="" style="shape=image;html=1;verticalAlign=top;verticalLabelPosition=bottom;labelBackgroundColor=#ffffff;imageAspect=0;aspect=fixed;image=https://cdn4.iconfinder.com/data/icons/spirit20/file-zip.png;strokeColor=default;fillColor=#3333FF;" vertex="1" parent="fsIm3HDob8JfFCVEmCF0-6">
          <mxGeometry x="115" y="30" width="30" height="30" as="geometry" />
        </mxCell>
        <mxCell id="fsIm3HDob8JfFCVEmCF0-41" value="&lt;font style=&quot;font-size: 10px;&quot;&gt;SourceArtifact&lt;/font&gt;" style="text;html=1;align=center;verticalAlign=middle;resizable=0;points=[];autosize=1;strokeColor=none;fillColor=none;" vertex="1" parent="fsIm3HDob8JfFCVEmCF0-6">
          <mxGeometry x="85" y="49" width="90" height="30" as="geometry" />
        </mxCell>
        <mxCell id="fsIm3HDob8JfFCVEmCF0-42" value="" style="endArrow=classic;html=1;rounded=0;fontSize=10;exitX=0.5;exitY=0;exitDx=0;exitDy=0;entryX=0.495;entryY=1.021;entryDx=0;entryDy=0;entryPerimeter=0;" edge="1" parent="fsIm3HDob8JfFCVEmCF0-6" target="fsIm3HDob8JfFCVEmCF0-41">
          <mxGeometry width="50" height="50" relative="1" as="geometry">
            <mxPoint x="130" y="181" as="sourcePoint" />
            <mxPoint x="340" y="161" as="targetPoint" />
          </mxGeometry>
        </mxCell>
        <mxCell id="fsIm3HDob8JfFCVEmCF0-43" value="" style="endArrow=classic;html=1;rounded=0;fontSize=10;exitX=1;exitY=0.5;exitDx=0;exitDy=0;" edge="1" parent="fsIm3HDob8JfFCVEmCF0-6" source="fsIm3HDob8JfFCVEmCF0-40" target="fsIm3HDob8JfFCVEmCF0-10">
          <mxGeometry width="50" height="50" relative="1" as="geometry">
            <mxPoint x="260" y="201" as="sourcePoint" />
            <mxPoint x="310" y="151" as="targetPoint" />
          </mxGeometry>
        </mxCell>
        <mxCell id="fsIm3HDob8JfFCVEmCF0-47" value="" style="endArrow=classic;html=1;rounded=0;fontSize=10;entryX=0.25;entryY=0;entryDx=0;entryDy=0;exitX=0;exitY=0.75;exitDx=0;exitDy=0;exitPerimeter=0;" edge="1" parent="fsIm3HDob8JfFCVEmCF0-6" source="fsIm3HDob8JfFCVEmCF0-10" target="fsIm3HDob8JfFCVEmCF0-33">
          <mxGeometry width="50" height="50" relative="1" as="geometry">
            <mxPoint x="270" y="200" as="sourcePoint" />
            <mxPoint x="320" y="150" as="targetPoint" />
            <Array as="points">
              <mxPoint x="280" y="58" />
            </Array>
          </mxGeometry>
        </mxCell>
        <mxCell id="fsIm3HDob8JfFCVEmCF0-66" value="SourceArtifact" style="edgeLabel;html=1;align=center;verticalAlign=middle;resizable=0;points=[];fontSize=10;" vertex="1" connectable="0" parent="fsIm3HDob8JfFCVEmCF0-47">
          <mxGeometry x="0.0596" relative="1" as="geometry">
            <mxPoint as="offset" />
          </mxGeometry>
        </mxCell>
        <mxCell id="fsIm3HDob8JfFCVEmCF0-48" value="" style="shape=image;html=1;verticalAlign=top;verticalLabelPosition=bottom;labelBackgroundColor=#ffffff;imageAspect=0;aspect=fixed;image=https://cdn4.iconfinder.com/data/icons/spirit20/file-zip.png;strokeColor=default;fillColor=#3333FF;" vertex="1" parent="fsIm3HDob8JfFCVEmCF0-6">
          <mxGeometry x="329" y="112" width="30" height="30" as="geometry" />
        </mxCell>
        <mxCell id="fsIm3HDob8JfFCVEmCF0-50" value="" style="shape=image;html=1;verticalAlign=top;verticalLabelPosition=bottom;labelBackgroundColor=#ffffff;imageAspect=0;aspect=fixed;image=https://cdn4.iconfinder.com/data/icons/spirit20/file-zip.png;strokeColor=default;fillColor=#3333FF;" vertex="1" parent="fsIm3HDob8JfFCVEmCF0-6">
          <mxGeometry x="389" y="70" width="30" height="30" as="geometry" />
        </mxCell>
        <mxCell id="fsIm3HDob8JfFCVEmCF0-54" value="" style="endArrow=classic;html=1;rounded=0;fontSize=10;exitX=0.5;exitY=0;exitDx=0;exitDy=0;" edge="1" parent="fsIm3HDob8JfFCVEmCF0-6" source="fsIm3HDob8JfFCVEmCF0-33">
          <mxGeometry width="50" height="50" relative="1" as="geometry">
            <mxPoint x="340" y="240" as="sourcePoint" />
            <mxPoint x="380" y="60" as="targetPoint" />
            <Array as="points">
              <mxPoint x="300" y="160" />
              <mxPoint x="300" y="150" />
              <mxPoint x="370" y="150" />
              <mxPoint x="370" y="100" />
              <mxPoint x="470" y="100" />
              <mxPoint x="470" y="60" />
            </Array>
          </mxGeometry>
        </mxCell>
        <mxCell id="fsIm3HDob8JfFCVEmCF0-62" value="appspec.yaml" style="edgeLabel;html=1;align=center;verticalAlign=middle;resizable=0;points=[];fontSize=10;" vertex="1" connectable="0" parent="fsIm3HDob8JfFCVEmCF0-54">
          <mxGeometry x="-0.4172" relative="1" as="geometry">
            <mxPoint x="-36" as="offset" />
          </mxGeometry>
        </mxCell>
        <mxCell id="fsIm3HDob8JfFCVEmCF0-63" value="ImageDetail.json" style="edgeLabel;html=1;align=center;verticalAlign=middle;resizable=0;points=[];fontSize=10;" vertex="1" connectable="0" parent="fsIm3HDob8JfFCVEmCF0-54">
          <mxGeometry x="0.1711" y="-1" relative="1" as="geometry">
            <mxPoint x="-35" as="offset" />
          </mxGeometry>
        </mxCell>
        <mxCell id="fsIm3HDob8JfFCVEmCF0-65" value="taskdef.json" style="edgeLabel;html=1;align=center;verticalAlign=middle;resizable=0;points=[];fontSize=10;" vertex="1" connectable="0" parent="fsIm3HDob8JfFCVEmCF0-54">
          <mxGeometry x="0.4039" y="-1" relative="1" as="geometry">
            <mxPoint as="offset" />
          </mxGeometry>
        </mxCell>
        <mxCell id="fsIm3HDob8JfFCVEmCF0-67" value="" style="shape=image;html=1;verticalAlign=top;verticalLabelPosition=bottom;labelBackgroundColor=#ffffff;imageAspect=0;aspect=fixed;image=https://cdn4.iconfinder.com/data/icons/spirit20/file-zip.png;strokeColor=default;fillColor=#3333FF;" vertex="1" parent="fsIm3HDob8JfFCVEmCF0-6">
          <mxGeometry x="265" y="82" width="30" height="30" as="geometry" />
        </mxCell>
        <mxCell id="fsIm3HDob8JfFCVEmCF0-79" value="" style="endArrow=classic;html=1;rounded=0;fontSize=10;" edge="1" parent="fsIm3HDob8JfFCVEmCF0-6" target="fsIm3HDob8JfFCVEmCF0-36">
          <mxGeometry width="50" height="50" relative="1" as="geometry">
            <mxPoint x="380" y="40" as="sourcePoint" />
            <mxPoint x="520" y="130" as="targetPoint" />
            <Array as="points">
              <mxPoint x="540" y="40" />
              <mxPoint x="540" y="120" />
              <mxPoint x="470" y="120" />
            </Array>
          </mxGeometry>
        </mxCell>
        <mxCell id="fsIm3HDob8JfFCVEmCF0-81" value="appspec.yaml" style="edgeLabel;html=1;align=center;verticalAlign=middle;resizable=0;points=[];fontSize=10;" vertex="1" connectable="0" parent="fsIm3HDob8JfFCVEmCF0-79">
          <mxGeometry x="-0.2778" y="1" relative="1" as="geometry">
            <mxPoint x="-8" y="-5" as="offset" />
          </mxGeometry>
        </mxCell>
        <mxCell id="fsIm3HDob8JfFCVEmCF0-83" value="ImageDetail.yaml" style="edgeLabel;html=1;align=center;verticalAlign=middle;resizable=0;points=[];fontSize=10;" vertex="1" connectable="0" parent="fsIm3HDob8JfFCVEmCF0-79">
          <mxGeometry x="0.1703" relative="1" as="geometry">
            <mxPoint as="offset" />
          </mxGeometry>
        </mxCell>
        <mxCell id="fsIm3HDob8JfFCVEmCF0-84" value="taskdef.json" style="edgeLabel;html=1;align=center;verticalAlign=middle;resizable=0;points=[];fontSize=10;" vertex="1" connectable="0" parent="fsIm3HDob8JfFCVEmCF0-79">
          <mxGeometry x="0.7054" relative="1" as="geometry">
            <mxPoint as="offset" />
          </mxGeometry>
        </mxCell>
        <mxCell id="fsIm3HDob8JfFCVEmCF0-82" value="" style="shape=image;html=1;verticalAlign=top;verticalLabelPosition=bottom;labelBackgroundColor=#ffffff;imageAspect=0;aspect=fixed;image=https://cdn4.iconfinder.com/data/icons/spirit20/file-zip.png;strokeColor=default;fillColor=#3333FF;" vertex="1" parent="fsIm3HDob8JfFCVEmCF0-6">
          <mxGeometry x="503" y="4" width="30" height="30" as="geometry" />
        </mxCell>
        <mxCell id="fsIm3HDob8JfFCVEmCF0-91" value="" style="shape=image;html=1;verticalAlign=top;verticalLabelPosition=bottom;labelBackgroundColor=#ffffff;imageAspect=0;aspect=fixed;image=https://cdn4.iconfinder.com/data/icons/spirit20/file-zip.png;strokeColor=default;fillColor=#3333FF;" vertex="1" parent="fsIm3HDob8JfFCVEmCF0-6">
          <mxGeometry x="526" y="81" width="30" height="30" as="geometry" />
        </mxCell>
        <mxCell id="fsIm3HDob8JfFCVEmCF0-85" value="" style="shape=image;html=1;verticalAlign=top;verticalLabelPosition=bottom;labelBackgroundColor=#ffffff;imageAspect=0;aspect=fixed;image=https://cdn4.iconfinder.com/data/icons/spirit20/file-zip.png;strokeColor=default;fillColor=#3333FF;" vertex="1" parent="fsIm3HDob8JfFCVEmCF0-6">
          <mxGeometry x="455" y="49" width="30" height="30" as="geometry" />
        </mxCell>
        <mxCell id="fsIm3HDob8JfFCVEmCF0-11" value="ECR" style="sketch=0;points=[[0,0,0],[0.25,0,0],[0.5,0,0],[0.75,0,0],[1,0,0],[0,1,0],[0.25,1,0],[0.5,1,0],[0.75,1,0],[1,1,0],[0,0.25,0],[0,0.5,0],[0,0.75,0],[1,0.25,0],[1,0.5,0],[1,0.75,0]];outlineConnect=0;fontColor=#232F3E;gradientColor=#F78E04;gradientDirection=north;fillColor=#D05C17;strokeColor=#ffffff;dashed=0;verticalLabelPosition=bottom;verticalAlign=top;align=center;html=1;fontSize=12;fontStyle=0;aspect=fixed;shape=mxgraph.aws4.resourceIcon;resIcon=mxgraph.aws4.ecr;" vertex="1" parent="fsIm3HDob8JfFCVEmCF0-6">
          <mxGeometry x="660" y="25" width="50" height="50" as="geometry" />
        </mxCell>
        <mxCell id="fsIm3HDob8JfFCVEmCF0-93" value="" style="endArrow=classic;html=1;rounded=0;fontSize=10;exitX=0.75;exitY=0;exitDx=0;exitDy=0;entryX=0.5;entryY=1;entryDx=0;entryDy=0;" edge="1" parent="fsIm3HDob8JfFCVEmCF0-6" source="fsIm3HDob8JfFCVEmCF0-33" target="fsIm3HDob8JfFCVEmCF0-94">
          <mxGeometry width="50" height="50" relative="1" as="geometry">
            <mxPoint x="570" y="290" as="sourcePoint" />
            <mxPoint x="674.1500000000001" y="142.96800000000007" as="targetPoint" />
            <Array as="points">
              <mxPoint x="320" y="160" />
              <mxPoint x="620" y="160" />
              <mxPoint x="620" y="140" />
            </Array>
          </mxGeometry>
        </mxCell>
        <mxCell id="fsIm3HDob8JfFCVEmCF0-98" value="Image" style="edgeLabel;html=1;align=center;verticalAlign=middle;resizable=0;points=[];fontSize=10;" vertex="1" connectable="0" parent="fsIm3HDob8JfFCVEmCF0-93">
          <mxGeometry x="0.92" y="-1" relative="1" as="geometry">
            <mxPoint as="offset" />
          </mxGeometry>
        </mxCell>
        <mxCell id="fsIm3HDob8JfFCVEmCF0-94" value="" style="shape=image;html=1;verticalAlign=top;verticalLabelPosition=bottom;labelBackgroundColor=#ffffff;imageAspect=0;aspect=fixed;image=https://cdn1.iconfinder.com/data/icons/unicons-line-vol-3/24/docker-128.png;fontSize=10;strokeColor=default;fillColor=#3333FF;" vertex="1" parent="fsIm3HDob8JfFCVEmCF0-6">
          <mxGeometry x="600" y="89" width="40" height="40" as="geometry" />
        </mxCell>
        <mxCell id="fsIm3HDob8JfFCVEmCF0-97" value="" style="endArrow=classic;html=1;rounded=0;fontSize=10;exitX=0.5;exitY=0;exitDx=0;exitDy=0;entryX=0;entryY=0.5;entryDx=0;entryDy=0;entryPerimeter=0;" edge="1" parent="fsIm3HDob8JfFCVEmCF0-6" source="fsIm3HDob8JfFCVEmCF0-94" target="fsIm3HDob8JfFCVEmCF0-11">
          <mxGeometry width="50" height="50" relative="1" as="geometry">
            <mxPoint x="600" y="110" as="sourcePoint" />
            <mxPoint x="650" y="60" as="targetPoint" />
            <Array as="points">
              <mxPoint x="620" y="50" />
            </Array>
          </mxGeometry>
        </mxCell>
        <mxCell id="fsIm3HDob8JfFCVEmCF0-100" value="            ECS" style="fillColor=#fff2cc;strokeColor=none;dashed=0;verticalAlign=top;fontStyle=0;fontSize=10;align=left;" vertex="1" parent="fsIm3HDob8JfFCVEmCF0-6">
          <mxGeometry x="240" y="330" width="240" height="180" as="geometry" />
        </mxCell>
        <mxCell id="fsIm3HDob8JfFCVEmCF0-101" value="" style="sketch=0;points=[[0,0,0],[0.25,0,0],[0.5,0,0],[0.75,0,0],[1,0,0],[0,1,0],[0.25,1,0],[0.5,1,0],[0.75,1,0],[1,1,0],[0,0.25,0],[0,0.5,0],[0,0.75,0],[1,0.25,0],[1,0.5,0],[1,0.75,0]];outlineConnect=0;fontColor=#232F3E;gradientColor=#F78E04;gradientDirection=north;fillColor=#D05C17;strokeColor=#ffffff;dashed=0;verticalLabelPosition=bottom;verticalAlign=top;align=center;html=1;fontSize=12;fontStyle=0;aspect=fixed;shape=mxgraph.aws4.resourceIcon;resIcon=mxgraph.aws4.ecs;" vertex="1" parent="fsIm3HDob8JfFCVEmCF0-6">
          <mxGeometry x="240" y="330" width="30" height="30" as="geometry" />
        </mxCell>
        <mxCell id="fsIm3HDob8JfFCVEmCF0-105" value="" style="sketch=0;outlineConnect=0;fontColor=#232F3E;gradientColor=none;fillColor=#D45B07;strokeColor=none;dashed=0;verticalLabelPosition=bottom;verticalAlign=top;align=center;html=1;fontSize=12;fontStyle=0;aspect=fixed;pointerEvents=1;shape=mxgraph.aws4.instance2;" vertex="1" parent="fsIm3HDob8JfFCVEmCF0-6">
          <mxGeometry x="280" y="340" width="160" height="160" as="geometry" />
        </mxCell>
        <mxCell id="fsIm3HDob8JfFCVEmCF0-106" value="&lt;font style=&quot;font-size: 10px;&quot;&gt;&lt;sup&gt;Task 1&lt;/sup&gt;&lt;/font&gt;" style="sketch=0;outlineConnect=0;fontColor=#232F3E;gradientColor=none;fillColor=#D45B07;strokeColor=none;dashed=0;verticalLabelPosition=bottom;verticalAlign=top;align=center;html=1;fontSize=12;fontStyle=0;aspect=fixed;pointerEvents=1;shape=mxgraph.aws4.container_2;" vertex="1" parent="fsIm3HDob8JfFCVEmCF0-6">
          <mxGeometry x="310" y="370" width="48" height="31" as="geometry" />
        </mxCell>
        <mxCell id="fsIm3HDob8JfFCVEmCF0-108" value="&lt;font style=&quot;font-size: 10px;&quot;&gt;&lt;sup&gt;Task 2&lt;/sup&gt;&lt;/font&gt;" style="sketch=0;outlineConnect=0;fontColor=#232F3E;gradientColor=none;fillColor=#D45B07;strokeColor=none;dashed=0;verticalLabelPosition=bottom;verticalAlign=top;align=center;html=1;fontSize=12;fontStyle=0;aspect=fixed;pointerEvents=1;shape=mxgraph.aws4.container_2;" vertex="1" parent="fsIm3HDob8JfFCVEmCF0-6">
          <mxGeometry x="356" y="422" width="48" height="31" as="geometry" />
        </mxCell>
        <mxCell id="fsIm3HDob8JfFCVEmCF0-115" style="edgeStyle=orthogonalEdgeStyle;rounded=0;orthogonalLoop=1;jettySize=auto;html=1;fontSize=10;entryX=1;entryY=0.75;entryDx=0;entryDy=0;endArrow=none;endFill=0;startArrow=classic;startFill=1;" edge="1" parent="fsIm3HDob8JfFCVEmCF0-6" source="fsIm3HDob8JfFCVEmCF0-109" target="fsIm3HDob8JfFCVEmCF0-36">
          <mxGeometry relative="1" as="geometry">
            <Array as="points">
              <mxPoint x="598" y="270" />
            </Array>
          </mxGeometry>
        </mxCell>
        <mxCell id="fsIm3HDob8JfFCVEmCF0-109" value="appsepc.yaml" style="sketch=0;outlineConnect=0;fontColor=#232F3E;gradientColor=none;fillColor=#D45B07;strokeColor=none;dashed=0;verticalLabelPosition=bottom;verticalAlign=top;align=center;html=1;fontSize=12;fontStyle=0;aspect=fixed;pointerEvents=1;shape=mxgraph.aws4.ecs_task;" vertex="1" parent="fsIm3HDob8JfFCVEmCF0-6">
          <mxGeometry x="583" y="300" width="30.83" height="40" as="geometry" />
        </mxCell>
        <mxCell id="fsIm3HDob8JfFCVEmCF0-110" value="task definition" style="sketch=0;outlineConnect=0;fontColor=#232F3E;gradientColor=none;fillColor=#D45B07;strokeColor=none;dashed=0;verticalLabelPosition=bottom;verticalAlign=top;align=center;html=1;fontSize=12;fontStyle=0;aspect=fixed;pointerEvents=1;shape=mxgraph.aws4.ecs_task;" vertex="1" parent="fsIm3HDob8JfFCVEmCF0-6">
          <mxGeometry x="584.54" y="408.5" width="31.99" height="41.5" as="geometry" />
        </mxCell>
        <mxCell id="fsIm3HDob8JfFCVEmCF0-112" value="Service" style="sketch=0;outlineConnect=0;fontColor=#232F3E;gradientColor=none;fillColor=#D45B07;strokeColor=none;dashed=0;verticalLabelPosition=bottom;verticalAlign=top;align=center;html=1;fontSize=12;fontStyle=0;aspect=fixed;pointerEvents=1;shape=mxgraph.aws4.ecs_service;" vertex="1" parent="fsIm3HDob8JfFCVEmCF0-6">
          <mxGeometry x="499.72" y="408" width="36.56" height="45" as="geometry" />
        </mxCell>
        <mxCell id="fsIm3HDob8JfFCVEmCF0-2" value="" style="sketch=0;points=[[0,0,0],[0.25,0,0],[0.5,0,0],[0.75,0,0],[1,0,0],[0,1,0],[0.25,1,0],[0.5,1,0],[0.75,1,0],[1,1,0],[0,0.25,0],[0,0.5,0],[0,0.75,0],[1,0.25,0],[1,0.5,0],[1,0.75,0]];outlineConnect=0;fontColor=#232F3E;gradientColor=#F78E04;gradientDirection=north;fillColor=#D05C17;strokeColor=#ffffff;dashed=0;verticalLabelPosition=bottom;verticalAlign=top;align=center;html=1;fontSize=12;fontStyle=0;aspect=fixed;shape=mxgraph.aws4.resourceIcon;resIcon=mxgraph.aws4.elastic_load_balancing;" vertex="1" parent="fsIm3HDob8JfFCVEmCF0-6">
          <mxGeometry x="40" y="387" width="50" height="50" as="geometry" />
        </mxCell>
        <mxCell id="fsIm3HDob8JfFCVEmCF0-116" value="" style="endArrow=classic;html=1;rounded=0;fontSize=10;" edge="1" parent="fsIm3HDob8JfFCVEmCF0-6" source="fsIm3HDob8JfFCVEmCF0-109" target="fsIm3HDob8JfFCVEmCF0-110">
          <mxGeometry width="50" height="50" relative="1" as="geometry">
            <mxPoint x="590" y="390" as="sourcePoint" />
            <mxPoint x="640" y="340" as="targetPoint" />
          </mxGeometry>
        </mxCell>
        <mxCell id="fsIm3HDob8JfFCVEmCF0-117" value="" style="endArrow=classic;html=1;rounded=0;fontSize=10;" edge="1" parent="fsIm3HDob8JfFCVEmCF0-6" source="fsIm3HDob8JfFCVEmCF0-110" target="fsIm3HDob8JfFCVEmCF0-112">
          <mxGeometry width="50" height="50" relative="1" as="geometry">
            <mxPoint x="590" y="390" as="sourcePoint" />
            <mxPoint x="640" y="340" as="targetPoint" />
          </mxGeometry>
        </mxCell>
        <mxCell id="fsIm3HDob8JfFCVEmCF0-118" value="" style="endArrow=classic;html=1;rounded=0;fontSize=10;" edge="1" parent="fsIm3HDob8JfFCVEmCF0-6" source="fsIm3HDob8JfFCVEmCF0-112" target="fsIm3HDob8JfFCVEmCF0-106">
          <mxGeometry width="50" height="50" relative="1" as="geometry">
            <mxPoint x="550" y="450" as="sourcePoint" />
            <mxPoint x="600" y="400" as="targetPoint" />
            <Array as="points">
              <mxPoint x="460" y="431" />
              <mxPoint x="460" y="386" />
            </Array>
          </mxGeometry>
        </mxCell>
        <mxCell id="fsIm3HDob8JfFCVEmCF0-119" value="" style="endArrow=classic;html=1;rounded=0;fontSize=10;exitX=0.5;exitY=1;exitDx=0;exitDy=0;exitPerimeter=0;" edge="1" parent="fsIm3HDob8JfFCVEmCF0-6" source="fsIm3HDob8JfFCVEmCF0-11" target="fsIm3HDob8JfFCVEmCF0-110">
          <mxGeometry width="50" height="50" relative="1" as="geometry">
            <mxPoint x="550" y="400" as="sourcePoint" />
            <mxPoint x="600" y="350" as="targetPoint" />
            <Array as="points">
              <mxPoint x="685" y="430" />
            </Array>
          </mxGeometry>
        </mxCell>
        <mxCell id="fsIm3HDob8JfFCVEmCF0-123" value="Target &#xa;Group Blue" style="dashed=0;verticalAlign=top;fontStyle=0;fontSize=10;fillColor=#1ba1e2;strokeColor=#006EAF;fontColor=#ffffff;" vertex="1" parent="fsIm3HDob8JfFCVEmCF0-6">
          <mxGeometry x="120" y="360" width="70" height="40" as="geometry" />
        </mxCell>
        <mxCell id="fsIm3HDob8JfFCVEmCF0-174" value="Target &#xa;Group Green" style="dashed=0;verticalAlign=top;fontStyle=0;fontSize=10;fillColor=#60a917;strokeColor=#2D7600;fontColor=#ffffff;" vertex="1" parent="fsIm3HDob8JfFCVEmCF0-6">
          <mxGeometry x="120" y="427" width="70" height="40" as="geometry" />
        </mxCell>
        <mxCell id="fsIm3HDob8JfFCVEmCF0-5" value="VPC" style="points=[[0,0],[0.25,0],[0.5,0],[0.75,0],[1,0],[1,0.25],[1,0.5],[1,0.75],[1,1],[0.75,1],[0.5,1],[0.25,1],[0,1],[0,0.75],[0,0.5],[0,0.25]];outlineConnect=0;gradientColor=none;html=1;whiteSpace=wrap;fontSize=12;fontStyle=0;container=1;pointerEvents=0;collapsible=0;recursiveResize=0;shape=mxgraph.aws4.group;grIcon=mxgraph.aws4.group_vpc;strokeColor=#248814;fillColor=none;verticalAlign=top;align=left;spacingLeft=30;fontColor=#AAB7B8;dashed=0;" vertex="1" parent="1">
          <mxGeometry x="560" y="90" width="130" height="130" as="geometry" />
        </mxCell>
        <mxCell id="fsIm3HDob8JfFCVEmCF0-8" value="Security group" style="fillColor=none;strokeColor=#DD3522;verticalAlign=top;fontStyle=0;fontColor=#DD3522;" vertex="1" parent="1">
          <mxGeometry x="1111" y="150" width="130" height="130" as="geometry" />
        </mxCell>
        <mxCell id="fsIm3HDob8JfFCVEmCF0-9" value="Private subnet" style="points=[[0,0],[0.25,0],[0.5,0],[0.75,0],[1,0],[1,0.25],[1,0.5],[1,0.75],[1,1],[0.75,1],[0.5,1],[0.25,1],[0,1],[0,0.75],[0,0.5],[0,0.25]];outlineConnect=0;gradientColor=none;html=1;whiteSpace=wrap;fontSize=12;fontStyle=0;container=1;pointerEvents=0;collapsible=0;recursiveResize=0;shape=mxgraph.aws4.group;grIcon=mxgraph.aws4.group_security_group;grStroke=0;strokeColor=#147EBA;fillColor=#E6F2F8;verticalAlign=top;align=left;spacingLeft=30;fontColor=#147EBA;dashed=0;" vertex="1" parent="1">
          <mxGeometry x="350" y="310" width="130" height="130" as="geometry" />
        </mxCell>
        <mxCell id="fsIm3HDob8JfFCVEmCF0-14" value="users" style="sketch=0;outlineConnect=0;gradientColor=none;fontColor=#545B64;strokeColor=none;fillColor=#879196;dashed=0;verticalLabelPosition=bottom;verticalAlign=top;align=center;html=1;fontSize=12;fontStyle=0;aspect=fixed;shape=mxgraph.aws4.illustration_users;pointerEvents=1" vertex="1" parent="1">
          <mxGeometry x="20" y="170" width="100" height="100" as="geometry" />
        </mxCell>
        <mxCell id="fsIm3HDob8JfFCVEmCF0-15" value="desktop" style="sketch=0;outlineConnect=0;gradientColor=none;fontColor=#545B64;strokeColor=none;fillColor=#879196;dashed=0;verticalLabelPosition=bottom;verticalAlign=top;align=center;html=1;fontSize=12;fontStyle=0;aspect=fixed;shape=mxgraph.aws4.illustration_desktop;pointerEvents=1" vertex="1" parent="1">
          <mxGeometry x="30" y="880" width="54.95" height="50" as="geometry" />
        </mxCell>
        <mxCell id="fsIm3HDob8JfFCVEmCF0-16" value="" style="sketch=0;outlineConnect=0;fontColor=#232F3E;gradientColor=none;fillColor=#D45B07;strokeColor=none;dashed=0;verticalLabelPosition=bottom;verticalAlign=top;align=center;html=1;fontSize=12;fontStyle=0;aspect=fixed;pointerEvents=1;shape=mxgraph.aws4.ecs_task;" vertex="1" parent="1">
          <mxGeometry x="240" y="202" width="37" height="48" as="geometry" />
        </mxCell>
        <mxCell id="fsIm3HDob8JfFCVEmCF0-17" value="" style="sketch=0;outlineConnect=0;fontColor=#232F3E;gradientColor=none;fillColor=#D45B07;strokeColor=none;dashed=0;verticalLabelPosition=bottom;verticalAlign=top;align=center;html=1;fontSize=12;fontStyle=0;aspect=fixed;pointerEvents=1;shape=mxgraph.aws4.container_registry_image;" vertex="1" parent="1">
          <mxGeometry x="234.5" y="270" width="48" height="48" as="geometry" />
        </mxCell>
        <mxCell id="fsIm3HDob8JfFCVEmCF0-18" value="" style="sketch=0;outlineConnect=0;fontColor=#232F3E;gradientColor=none;fillColor=#D45B07;strokeColor=none;dashed=0;verticalLabelPosition=bottom;verticalAlign=top;align=center;html=1;fontSize=12;fontStyle=0;aspect=fixed;pointerEvents=1;shape=mxgraph.aws4.ecs_service;" vertex="1" parent="1">
          <mxGeometry x="238" y="340" width="39" height="48" as="geometry" />
        </mxCell>
        <mxCell id="fsIm3HDob8JfFCVEmCF0-19" value="" style="sketch=0;outlineConnect=0;fontColor=#232F3E;gradientColor=none;fillColor=#D45B07;strokeColor=none;dashed=0;verticalLabelPosition=bottom;verticalAlign=top;align=center;html=1;fontSize=12;fontStyle=0;aspect=fixed;pointerEvents=1;shape=mxgraph.aws4.container_2;" vertex="1" parent="1">
          <mxGeometry x="250" y="409" width="48" height="31" as="geometry" />
        </mxCell>
        <mxCell id="fsIm3HDob8JfFCVEmCF0-20" value="" style="sketch=0;outlineConnect=0;fontColor=#232F3E;gradientColor=none;fillColor=#BF0816;strokeColor=none;dashed=0;verticalLabelPosition=bottom;verticalAlign=top;align=center;html=1;fontSize=12;fontStyle=0;aspect=fixed;pointerEvents=1;shape=mxgraph.aws4.role;" vertex="1" parent="1">
          <mxGeometry x="42" y="376" width="78" height="44" as="geometry" />
        </mxCell>
        <mxCell id="fsIm3HDob8JfFCVEmCF0-21" value="" style="sketch=0;outlineConnect=0;fontColor=#232F3E;gradientColor=none;fillColor=#BF0816;strokeColor=none;dashed=0;verticalLabelPosition=bottom;verticalAlign=top;align=center;html=1;fontSize=12;fontStyle=0;aspect=fixed;pointerEvents=1;shape=mxgraph.aws4.permissions;" vertex="1" parent="1">
          <mxGeometry x="383" y="160" width="62" height="78" as="geometry" />
        </mxCell>
        <mxCell id="fsIm3HDob8JfFCVEmCF0-22" value="" style="outlineConnect=0;dashed=0;verticalLabelPosition=bottom;verticalAlign=top;align=center;html=1;shape=mxgraph.aws3.iam;fillColor=#759C3E;gradientColor=none;" vertex="1" parent="1">
          <mxGeometry x="899" y="114.5" width="42" height="81" as="geometry" />
        </mxCell>
        <mxCell id="fsIm3HDob8JfFCVEmCF0-23" value="Availability Zone &#xa;us-east-1b" style="fillColor=none;strokeColor=#147EBA;dashed=1;verticalAlign=top;fontStyle=0;fontColor=#147EBA;" vertex="1" parent="1">
          <mxGeometry x="650" y="270" width="120" height="280" as="geometry" />
        </mxCell>
        <mxCell id="fsIm3HDob8JfFCVEmCF0-7" value="Availability Zone &#xa;us-east-1a" style="fillColor=none;strokeColor=#147EBA;dashed=1;verticalAlign=top;fontStyle=0;fontColor=#147EBA;" vertex="1" parent="1">
          <mxGeometry x="910" y="250" width="120" height="280" as="geometry" />
        </mxCell>
        <mxCell id="fsIm3HDob8JfFCVEmCF0-24" value="Availability Zone &#xa;us-east-1c" style="fillColor=none;strokeColor=#147EBA;dashed=1;verticalAlign=top;fontStyle=0;fontColor=#147EBA;" vertex="1" parent="1">
          <mxGeometry x="1070" y="550" width="120" height="280" as="geometry" />
        </mxCell>
        <mxCell id="fsIm3HDob8JfFCVEmCF0-86" value="" style="shape=image;html=1;verticalAlign=top;verticalLabelPosition=bottom;labelBackgroundColor=#ffffff;imageAspect=0;aspect=fixed;image=https://cdn4.iconfinder.com/data/icons/spirit20/file-zip.png;strokeColor=default;fillColor=#3333FF;" vertex="1" parent="1">
          <mxGeometry x="617" y="747" width="30" height="30" as="geometry" />
        </mxCell>
        <mxCell id="fsIm3HDob8JfFCVEmCF0-99" value="S3" style="text;html=1;align=center;verticalAlign=middle;resizable=0;points=[];autosize=1;strokeColor=none;fillColor=none;fontSize=10;" vertex="1" parent="1">
          <mxGeometry x="490" y="625" width="40" height="30" as="geometry" />
        </mxCell>
        <mxCell id="fsIm3HDob8JfFCVEmCF0-120" value="" style="endArrow=classic;html=1;rounded=0;fontSize=10;exitX=1.246;exitY=1.166;exitDx=0;exitDy=0;exitPerimeter=0;" edge="1" parent="1" source="fsIm3HDob8JfFCVEmCF0-99">
          <mxGeometry width="50" height="50" relative="1" as="geometry">
            <mxPoint x="850" y="1020" as="sourcePoint" />
            <mxPoint x="840" y="1060" as="targetPoint" />
            <Array as="points">
              <mxPoint x="880" y="660" />
              <mxPoint x="880" y="1060" />
            </Array>
          </mxGeometry>
        </mxCell>
      </root>
    </mxGraphModel>
  </diagram>
</mxfile>
